<?xml version="1.0" encoding="UTF-8"?>
<svg id="_图层_2" data-name="图层 2" xmlns="http://www.w3.org/2000/svg" viewBox="0 0 439.34 262.87">
  <defs>
    <style>
      .cls-1 {
        fill: #fff;
      }
    </style>
  </defs>
  <g id="_图层_1-2" data-name="图层 1">
    <g>
      <path d="M298.37,29.79c3.27,2.08,13.36.21,20.04.19,2.04,0,3.68,1.64,3.77,3.68,2.21,48.42-18.5,32.69-49.2,39.38-16.71,3.64-18.88,31.13-20.2,46.07-.87,9.88,5.77,27.79-2.98,33.05-19.09,11.46-20.43-9-26.48-18.72-16.9-27.17-51.17-28.31-69.34-1.86-2.93,4.26-9,20.93-10.01,21.55-4.88,3.04-19.13.57-22.16-5.51-4.54-9.12,10.52-72.96,21.17-75.22,3.83-.31,7.13,1.94,6.19,6.12-1.4,6.27-8.96,17.5-11.76,27.46-1.86,6.62-10.44,35.65-3.46,38.6,6.41,2.7,6.85-18.17,12.2-20.83,16.19-20.16,37.03-25.68,61.4-16.68,19.23,7.1,21.4,16.96,29.91,33.22,1.6,3.05-1.63,5.78,6.26,4.29-.33-20.07-2.53-74.85,23.23-80.59,20.57-4.58,46.78,9.93,46.01-24.7l-20.31-.14c-1.96-.01-3.52-1.58-3.63-3.53-.8-14.6-12.23-19.61-27.24-17.42,1.8,17.35.78,51.4-24.45,49.61-33.75-2.39-26.74-71.66,10.64-67.66,5.43.58,34.45,9.38,38.92,12.51,8.25,5.79,10.47,16.48,11.47,17.11Z"/>
      <path d="M216.66,197.28c2.64-8.55,40.24-5.31,47.35,2.27,6.93,7.39,1.83,18.59,2.46,26.62.68,8.66,8.71,9.87.92,24.88-9.42,18.16-33.77,8.82-50.74,10.92v-64.7ZM241.23,220.28c.43-.51,17.87-2.87,8.59-8.01l-18.12-1.47v36.14c19.37,3.56,32.67-9.15,8.86-16.71l.67-9.95Z"/>
      <path d="M349.17,192.84l2.89,21.01c33-9.52,42.87,39.87,15.91,47.59-4.83,1.38-31.5,1.33-33.51-4.43v-62.31c1.59-4.9,6.7-5.65,11.43-5.12,1.71.19,3.04,1.56,3.28,3.26Z"/>
      <path d="M207.64,213.83v48.15c-20.19-2.03-47.23,6.44-48.44-22.5-1.32-31.51,26.82-24.11,48.44-25.64Z"/>
      <path d="M291.46,214.25c6.15,3.7-1.14,35.2,10.92,32.66,10.79-7.12,7.44-19.32,7.49-30.69,0-1.33,1.15-2.38,2.48-2.34l12.21.37c4.91,2.97,4.91,44.24.09,47.39-40.49,3.55-51.56-4.31-48.01-45.72.1-1.17,1.11-2.08,2.28-2.05l12.53.38Z"/>
      <path d="M102.31,261.97c-21.78-3.46-45.33,7.86-48.33-22.38-.73-7.3.6-15.6.33-23.26-.05-1.37,1-2.53,2.38-2.53h10.58c1.05,0,1.85.93,1.74,1.97-4.19,40.85,22.58,41.02,18.48.14-.11-1.12.74-2.11,1.87-2.11h11.2c.97.01,1.76.8,1.76,1.77v46.39Z"/>
      <path d="M439.34,261.97c-21.78-3.46-45.33,7.86-48.33-22.38-.81-8.11.92-17.45.17-25.78h15.08c-5.36,43.51,23.35,43.66,18.02,0h15.06v48.16Z"/>
      <path d="M150.22,231.7c-4.42,3.13-29.77-10.84-23.46,11.85,2.86,4.74,33.8-4.7,23.93,14.11-25.4,18.03-56.86-14.68-34.7-37.66,11.8-12.24,44.46-10.11,34.23,11.71Z"/>
      <path d="M15.05,245.42c2.39,7.76,25.82,3.54,33.11,4.53v12.02H0v-64.7c0-5.67,15.05-5.67,15.05,0v48.15Z"/>
      <path d="M210.29,59.76l-.62,4.26c-.3,2.04-1.79,3.67-3.79,4.18-9.61,2.48-35.29,1.81-41.85,1.15-28.68-2.88-35.49-14.54-44.26-39.99-5.45-15.83,2.87-16.4,9.77-3.75,4.11,7.53,11.29,31.75,22.42,31.75h56.24c1.29,0,2.27,1.14,2.09,2.41Z"/>
      <path d="M291.88,111.5c4.23-3.83-12.17-17.44-20.89-18.46-1.47-.17-2.37-1.67-1.84-3.05l1.14-2.95c.29-.75.96-1.32,1.76-1.44,34.13-5.34,40.88,55.02,2.97,31.15-.78-.49-1.17-1.44-1.04-2.35,1.57-10.66,15.55-.78,17.9-2.9Z"/>
      <path d="M180.7,129.46l1.28,15.51c.13,1.55-.8,2.99-2.26,3.52l-8.91,3.22c-2.04.74-3.98-1.34-3.1-3.32,2.66-6.02,4.53-9.95,2.62-16.85-.69-2.48,1.09-4.94,3.66-4.94h3.62c1.61.02,2.95,1.25,3.08,2.86Z"/>
      <path class="cls-1" d="M241.23,220.28l-.67,9.95c23.81,7.56,10.5,20.27-8.86,16.71v-36.14s18.12,1.47,18.12,1.47c9.28,5.14-8.15,7.5-8.59,8.01Z"/>
    </g>
  </g>
</svg>